<svg version="1.2" xmlns="http://www.w3.org/2000/svg" viewBox="0 0 984 152" width="984" height="152">
	<title>New Project</title>
	<style>
		.s0 { fill: #339af0 } 
		.s1 { fill: #000000 } 
	</style>
	<g id="RecruitHub_">
		<path id="Path 0" class="s0" d="m871 142.5v12.5h94v-25h-94z"/>
		<path id="Path 1" fill-rule="evenodd" class="s1" d="m471.5 6.1c1.6 0 4.5 0.8 6.3 1.9 1.7 1.1 4 3.2 4.9 4.8 0.9 1.5 1.7 4.3 1.7 6.2 0 1.9-0.8 4.7-1.7 6.3-0.9 1.5-3.4 3.4-5.5 4.3-2.4 1-5.1 1.4-7.7 1.1-2.9-0.4-4.9-1.6-7.3-4.1-2.4-2.7-3.2-4.5-3.2-7.3 0-2.1 0.9-5.2 2.1-7 1.1-1.7 3.2-3.8 4.7-4.6 1.5-0.8 4.1-1.5 5.7-1.6zm-428.1 12.9c11.1 0 23 0.5 26.6 1.1 3.6 0.6 8.5 1.9 11 3 2.5 1.2 6.1 3.3 8 4.9 1.9 1.5 4.9 5.2 6.5 8.1 2.8 5 3 6.2 3 15.4 0 7.6-0.4 10.8-1.7 13.3-1 1.7-3.5 5.1-5.7 7.4-2.1 2.4-6.3 5.4-9.2 6.8-3 1.3-5.5 2.6-5.6 2.7-0.2 0.2 5.1 9.5 11.7 20.8 6.6 11.3 12 20.7 12 21 0 0.3-5.3 0.5-23.5 0.6l-23.1-40.6h-9.9l-0.5 40.5h-21l-0.2-51.8c-0.1-28.5 0.2-52.2 0.7-52.5 0.5-0.4 9.9-0.7 20.9-0.7zm-0.4 48c21 0 24.2-0.4 26.9-1.8 1.9-0.9 4.4-3 5.5-4.5 1.6-2.1 2.1-4.4 2.1-8.7 0-4.3-0.5-6.6-2.1-8.7-1.1-1.5-3.6-3.6-5.5-4.5-2.7-1.4-5.9-1.8-15.1-1.8h-11.8zm725-54h21v39.5l3.7-3.7c2.1-2 6.3-4.8 9.3-6.2 4.5-2.1 7-2.6 13.8-2.6 5.9 0 9.7 0.6 13.5 2 2.8 1.1 7.1 3.5 9.4 5.3 2.2 1.8 5.5 5.2 7.2 7.7 1.7 2.5 4 7 5.2 10 1.1 3 2.3 8.9 2.6 13 0.4 4.4 0.1 10.2-0.6 14-0.7 3.6-2.5 9-3.9 12-1.4 3.1-5 8-8.1 11-3.9 3.8-7.4 6.2-11.6 7.8-5 2-7.5 2.3-15 2-6.8-0.2-10.1-0.9-13.5-2.5-2.5-1.2-6.2-3.7-11.9-8.8l-0.1 10.5h-21zm30.5 48.8c-2.3 1.6-5 4.9-6.7 8.2-2.4 4.5-2.9 6.7-2.8 12.5 0 5.4 0.5 8.2 2.4 12 1.3 2.8 3.9 6.2 5.8 7.6 1.8 1.4 4.9 3.1 6.8 3.8 1.9 0.6 4.9 1.1 6.5 1.1 1.7 0 4.7-0.6 6.9-1.3 2.1-0.6 5.2-2.4 7-3.8 1.7-1.4 4.2-4.8 5.5-7.5 1.8-3.7 2.4-6.6 2.4-11.9 0-4.9-0.6-8.4-2-11.5-1.1-2.5-3.6-6-5.6-7.7-2-1.8-5.4-3.7-7.4-4.3-2.1-0.5-5.4-0.9-7.3-0.9-1.9 0.1-4.4 0.3-5.6 0.6-1.1 0.2-3.8 1.6-5.9 3.1zm-237.5-42.8h21v43h45v-43h21v105h-21v-44h-45v44h-21zm-55 1h21v21h19v17h-19v21c0 13.9 0.4 21.8 1.1 23.2 0.7 1.3 1.7 2.6 2.3 3 0.6 0.4 4.4 0.8 15.6 0.8v18h-9.7c-5.6 0-12-0.6-14.8-1.4-3.5-1-6.2-2.7-9.1-5.8-3-3.1-4.4-5.7-5.2-9.6-0.7-3.1-1.2-14.2-1.2-49.2h-10v-17h10zm-351.7 20.1c5.8-0.1 10.6 0.5 14.5 1.7 3.1 1 7.8 3.2 10.5 5 2.6 1.8 6.1 5.1 7.8 7.4 1.7 2.4 4 6.3 5.1 8.8 1 2.5 2.4 7.7 3 11.5 0.6 3.8 0.8 8.7-0.2 14.5h-60v2.2c0 1.3 0.9 4.1 1.9 6.3 1.2 2.4 3.7 5.2 6.3 6.9 2.7 1.8 6.1 3 9.3 3.4 3.8 0.3 6.2-0.1 9.8-1.7 2.6-1.1 5.7-3.5 9.2-8.1h21.5l-0.6 2.7c-0.3 1.6-2 5-3.7 7.7-1.8 2.7-4.8 6.1-6.7 7.7-1.9 1.5-6.2 4-9.5 5.6-5.6 2.6-6.9 2.8-18 2.8-11.4 0-12.3-0.2-18.5-3.2-4-1.9-8.3-5.1-11.2-8.2-2.7-2.8-5.9-7.5-7.3-10.4-1.3-2.8-2.9-7.7-3.5-10.7-0.6-3-1-7.6-1-10.3 0-2.6 0.7-7.7 1.5-11.5 0.9-4.2 2.9-9 5.3-12.7 2.1-3.3 5.4-7.2 7.3-8.6 1.9-1.4 5-3.4 6.9-4.4 1.9-1 5.3-2.4 7.5-3.1 2.2-0.7 7.9-1.3 12.8-1.3zm-12.5 21c-1.6 1-3.7 3.7-4.8 5.9-1.1 2.2-2 4.9-2 6 0 1.9 0.7 2 19.5 2 17.9 0 19.5-0.1 19.5-1.8 0-0.9-0.9-3.5-1.9-5.7-1-2.2-2.7-4.8-3.7-5.7-1-0.9-3.6-2.4-5.6-3.2-2.1-0.9-5.9-1.6-8.5-1.5-2.7 0-5.9 0.5-7.3 1-1.4 0.6-3.7 1.9-5.2 3zm105.5-21c7.7-0.1 10.9 0.4 15.5 2.1 3.1 1.2 7.5 3.6 9.7 5.3 2.2 1.7 5.4 5.1 7 7.5 1.7 2.5 3.9 6.6 6.5 14l-22.5-0.1-2-3.2c-1.1-1.7-3.6-4.2-5.5-5.4-2.7-1.8-4.9-2.3-9.2-2.3-3.2 0-7 0.6-8.5 1.4-1.6 0.7-4 2.7-5.5 4.5-1.6 1.7-3.5 5.5-4.3 8.3-0.8 2.9-1.5 7.5-1.5 10.3 0 2.7 0.7 7.4 1.5 10.2 0.8 2.9 2.7 6.7 4.3 8.4 1.5 1.8 3.9 3.8 5.5 4.5 1.5 0.8 5.3 1.4 8.5 1.4 4-0.1 6.8-0.7 9.5-2.3 2-1.2 4.5-3.7 7.2-8.7h22.5l-1.6 4.2c-0.8 2.4-2.4 5.6-3.4 7.3-1 1.7-3.8 4.9-6.2 7.2-2.4 2.3-7 5.5-10.3 7-5.5 2.6-6.9 2.8-18 2.8-11.4 0-12.3-0.2-18.5-3.2-4-1.9-8.2-5-11-8-2.4-2.6-5.8-7.7-7.5-11.3-2.9-6.2-3-7.1-3-19.5 0-12.8 0.1-13.1 3.5-20.4 2.2-4.6 5.2-8.9 8-11.6 2.5-2.3 6.1-5 8-6 1.9-1 5.3-2.4 7.5-3.1 2.2-0.7 8.4-1.3 13.8-1.3zm100.7-0.1v22h-6.2c-4.1 0-7.8 0.7-10.5 2-3.1 1.4-5 3.2-6.5 6.2-2.2 4.1-2.3 5.6-2.8 53.8h-21v-83h21v4.7c0 2.7 0.3 5.1 0.7 5.5 0.5 0.4 2.6-1.1 4.8-3.3 2.2-2.2 6.3-4.9 9-5.9 2.8-1 6.5-1.9 11.5-2zm12.8 1h21.2v24.2c0 18.4 0.3 25.5 1.4 29.3 0.8 2.7 2.8 6.2 4.3 7.7 1.5 1.5 4 3.2 5.6 3.7 1.5 0.6 4.8 1.1 7.5 1.1 3 0 6.3-0.8 9.1-2.2q4.4-2.3 6.5-6.3c2-3.8 2.1-5.6 2.4-57.5h21.2v83h-21v-10l-3.2 3c-1.8 1.7-5.3 4-7.8 5.2-3.6 1.8-6.3 2.2-14 2.3-8.3 0-10.2-0.3-15-2.6-3-1.5-7.2-4.6-9.3-7-2.1-2.4-4.8-6.9-5.9-9.9-2.1-5.1-2.2-7.6-2.6-34.8zm100.2 0h21v83h-21zm206.8 0h21.2l0.2 26.8c0.2 24.5 0.4 27.1 2.3 30.6 1.1 2.3 3.6 4.9 6 6.3 2.8 1.6 5.6 2.3 9.2 2.3 2.9 0 6.5-0.4 8-1 1.5-0.6 4-2.3 5.6-3.8 1.5-1.4 3.4-4.9 4.2-7.7 1.1-3.7 1.5-10.8 1.5-53.5h21v83h-21v-3.7c0-2.1-0.2-4.1-0.5-4.5-0.3-0.4-2.7 0.9-5.3 2.8-2.6 2-7.2 4.3-10.2 5.2-3.6 1-7.8 1.3-12 1-3.8-0.3-8.8-1.5-11.9-2.9-3.2-1.4-7.1-4.2-9.5-6.9-2.2-2.4-5-6.5-6.1-9-1.9-4.1-2.1-6.7-2.3-34.7z"/>
	</g>
</svg>